<?xml version="1.0" encoding="UTF-8" standalone="no"?>
<svg width="9px" height="16px" viewBox="0 0 9 16" version="1.1" xmlns="http://www.w3.org/2000/svg" xmlns:xlink="http://www.w3.org/1999/xlink">
    <!-- Generator: Sketch 3.6.1 (26313) - http://www.bohemiancoding.com/sketch -->
    <title>ibeam</title>
    <desc>Created with Sketch.</desc>
    <defs></defs>
    <g id="bundle-os-x-cursors" stroke="none" stroke-width="1" fill="none" fill-rule="evenodd">
        <g id="Made-with-💕by-Azendoo-design-team---@azendoo" transform="translate(-34.000000, -92.000000)">
            <g id="ibeam" transform="translate(34.000000, 92.000000)">
                <path d="M4.014,2 L4.014,13.993 L5,13.993 L5,2 L4.014,2 L4.014,2 Z" id="cursor" fill="#000000"></path>
                <path d="M3,8 L3,8.984 L6,8.984 L6,8 L3,8 L3,8 Z" id="cursor" fill="#000000"></path>
                <g id="cursor" stroke="#000000">
                    <path d="M5,2.5 C5.1925627,2.04209404 5.84981263,1.33691887 6.27644854,1.10338683 C6.68002306,0.880844534 7.09512828,0.691271468 7.49178438,0.591447969 C7.97722687,0.467813361 9,0.505361649 9,0.505361649"></path>
                    <path d="M4,2.5 C3.82141815,2.01963867 3.08491392,1.28308462 2.75693026,1.08270532 C2.36475051,0.844812087 1.9293843,0.691096459 1.52786694,0.591364297 C1.03530785,0.46784281 -1.13242749e-14,0.505356743 -1.13242749e-14,0.505356743"></path>
                    <path d="M5,13.5 C5.1925627,13.957906 5.84981263,14.6630811 6.27644854,14.8966132 C6.68002306,15.1191555 7.09512828,15.3087285 7.49178438,15.408552 C7.97722687,15.5321866 9,15.4946384 9,15.4946384"></path>
                    <path d="M4,13.5 C3.82141815,13.9803613 3.08491392,14.7169154 2.75693026,14.9172947 C2.36475051,15.1551879 1.9293843,15.3089035 1.52786694,15.4086357 C1.03530785,15.5321572 1.15463195e-14,15.4946433 1.15463195e-14,15.4946433"></path>
                </g>
            </g>
        </g>
    </g>
</svg>